<svg xmlns="http://www.w3.org/2000/svg" viewBox="0 0 720 420" role="img" aria-labelledby="title desc">
  <title id="title">운정 가족 민원서류 안내</title>
  <desc id="desc">정부24와 행정복지센터, 학교 제출 서류를 확인하는 장면을 표현한 일러스트</desc>
  <rect width="720" height="420" rx="34" fill="#f7fbf8"/>
  <path d="M0 318c78-34 155-42 234-24 63 14 124 49 191 55 92 8 169-42 295-20v91H0z" fill="#dfeee5"/>
  <rect x="86" y="72" width="242" height="280" rx="22" fill="#ffffff" stroke="#c9ded1" stroke-width="4"/>
  <rect x="118" y="112" width="146" height="18" rx="9" fill="#456b57"/>
  <rect x="118" y="154" width="176" height="12" rx="6" fill="#b7cec0"/>
  <rect x="118" y="184" width="144" height="12" rx="6" fill="#b7cec0"/>
  <rect x="118" y="214" width="166" height="12" rx="6" fill="#b7cec0"/>
  <rect x="118" y="268" width="86" height="38" rx="12" fill="#7ba78b"/>
  <path d="M226 279l18 18 42-48" fill="none" stroke="#456b57" stroke-width="12" stroke-linecap="round" stroke-linejoin="round"/>
  <rect x="396" y="94" width="232" height="192" rx="26" fill="#eaf4ee" stroke="#b8d2c2" stroke-width="4"/>
  <circle cx="454" cy="154" r="34" fill="#7ba78b"/>
  <path d="M438 156l14 14 30-38" fill="none" stroke="#fff" stroke-width="10" stroke-linecap="round" stroke-linejoin="round"/>
  <rect x="510" y="132" width="78" height="14" rx="7" fill="#456b57"/>
  <rect x="510" y="166" width="52" height="12" rx="6" fill="#95b9a3"/>
  <rect x="432" y="224" width="160" height="18" rx="9" fill="#c7dece"/>
  <circle cx="554" cy="318" r="42" fill="#f5c66d"/>
  <path d="M532 318h44M554 296v44" stroke="#795f20" stroke-width="10" stroke-linecap="round"/>
</svg>
